<?xml version="1.0" encoding="UTF-8" standalone="no"?>
<!DOCTYPE svg PUBLIC "-//W3C//DTD SVG 1.1//EN"
 "http://www.w3.org/Graphics/SVG/1.1/DTD/svg11.dtd">
<!-- Generated by graphviz version 14.1.2 (20260124.0452)
 -->
<!-- Title: graph Pages: 1 -->
<svg width="328pt" height="769pt"
 viewBox="0.00 0.00 328.00 769.00" xmlns="http://www.w3.org/2000/svg" xmlns:xlink="http://www.w3.org/1999/xlink">
<g id="graph0" class="graph" transform="scale(1 1) rotate(0) translate(4 765)">
<title>graph</title>
<polygon fill="white" stroke="none" points="-4,4 -4,-765 324,-765 324,4 -4,4"/>
<!-- x -->
<g id="node1" class="node">
<title>x</title>
<path fill="AliceBlue" stroke="black" d="M12,-515.5C12,-515.5 139,-515.5 139,-515.5 145,-515.5 151,-521.5 151,-527.5 151,-527.5 151,-748.5 151,-748.5 151,-754.5 145,-760.5 139,-760.5 139,-760.5 12,-760.5 12,-760.5 6,-760.5 0,-754.5 0,-748.5 0,-748.5 0,-527.5 0,-527.5 0,-521.5 6,-515.5 12,-515.5"/>
<text xml:space="preserve" text-anchor="middle" x="75.5" y="-743.2" font-family="Times,serif" font-size="14.00" fill="#000000">name=%x</text>
<polyline fill="none" stroke="black" points="0,-736 151,-736"/>
<text xml:space="preserve" text-anchor="middle" x="75.5" y="-718.7" font-family="Times,serif" font-size="14.00" fill="#000000">op_code=placeholder</text>
<polyline fill="none" stroke="black" points="0,-711.5 151,-711.5"/>
<text xml:space="preserve" text-anchor="middle" x="75.5" y="-694.2" font-family="Times,serif" font-size="14.00" fill="#000000">target=x</text>
<polyline fill="none" stroke="black" points="0,-687 151,-687"/>
<text xml:space="preserve" text-anchor="middle" x="75.5" y="-669.7" font-family="Times,serif" font-size="14.00" fill="#000000">num_users=1</text>
<polyline fill="none" stroke="black" points="0,-662.5 151,-662.5"/>
<text xml:space="preserve" text-anchor="middle" x="75.5" y="-645.2" font-family="Times,serif" font-size="14.00" fill="#000000">dtype=torch.bfloat16</text>
<polyline fill="none" stroke="black" points="0,-638 151,-638"/>
<text xml:space="preserve" text-anchor="middle" x="75.5" y="-620.7" font-family="Times,serif" font-size="14.00" fill="#000000">shape=(32, 32)</text>
<polyline fill="none" stroke="black" points="0,-613.5 151,-613.5"/>
<text xml:space="preserve" text-anchor="middle" x="75.5" y="-596.2" font-family="Times,serif" font-size="14.00" fill="#000000">requires_grad=False</text>
<polyline fill="none" stroke="black" points="0,-589 151,-589"/>
<text xml:space="preserve" text-anchor="middle" x="75.5" y="-571.7" font-family="Times,serif" font-size="14.00" fill="#000000">stride=(32, 1)</text>
<polyline fill="none" stroke="black" points="0,-564.5 151,-564.5"/>
<text xml:space="preserve" text-anchor="middle" x="75.5" y="-547.2" font-family="Times,serif" font-size="14.00" fill="#000000">dram_addr=0x00000000</text>
<polyline fill="none" stroke="black" points="0,-540 151,-540"/>
<text xml:space="preserve" text-anchor="middle" x="75.5" y="-522.7" font-family="Times,serif" font-size="14.00" fill="#000000">bytes=2048</text>
</g>
<!-- add -->
<g id="node3" class="node">
<title>add</title>
<path fill="#ffe7ba" stroke="black" d="M96,-233.5C96,-233.5 223,-233.5 223,-233.5 229,-233.5 235,-239.5 235,-245.5 235,-245.5 235,-466.5 235,-466.5 235,-472.5 229,-478.5 223,-478.5 223,-478.5 96,-478.5 96,-478.5 90,-478.5 84,-472.5 84,-466.5 84,-466.5 84,-245.5 84,-245.5 84,-239.5 90,-233.5 96,-233.5"/>
<text xml:space="preserve" text-anchor="middle" x="159.5" y="-461.2" font-family="Times,serif" font-size="14.00" fill="#000000">name=%add</text>
<polyline fill="none" stroke="black" points="84,-454 235,-454"/>
<text xml:space="preserve" text-anchor="middle" x="159.5" y="-436.7" font-family="Times,serif" font-size="14.00" fill="#000000">op_code=call_function</text>
<polyline fill="none" stroke="black" points="84,-429.5 235,-429.5"/>
<text xml:space="preserve" text-anchor="middle" x="159.5" y="-412.2" font-family="Times,serif" font-size="14.00" fill="#000000">target=_operator.add</text>
<polyline fill="none" stroke="black" points="84,-405 235,-405"/>
<text xml:space="preserve" text-anchor="middle" x="159.5" y="-387.7" font-family="Times,serif" font-size="14.00" fill="#000000">num_users=1</text>
<polyline fill="none" stroke="black" points="84,-380.5 235,-380.5"/>
<text xml:space="preserve" text-anchor="middle" x="159.5" y="-363.2" font-family="Times,serif" font-size="14.00" fill="#000000">dtype=torch.bfloat16</text>
<polyline fill="none" stroke="black" points="84,-356 235,-356"/>
<text xml:space="preserve" text-anchor="middle" x="159.5" y="-338.7" font-family="Times,serif" font-size="14.00" fill="#000000">shape=(32, 32)</text>
<polyline fill="none" stroke="black" points="84,-331.5 235,-331.5"/>
<text xml:space="preserve" text-anchor="middle" x="159.5" y="-314.2" font-family="Times,serif" font-size="14.00" fill="#000000">requires_grad=False</text>
<polyline fill="none" stroke="black" points="84,-307 235,-307"/>
<text xml:space="preserve" text-anchor="middle" x="159.5" y="-289.7" font-family="Times,serif" font-size="14.00" fill="#000000">stride=(32, 1)</text>
<polyline fill="none" stroke="black" points="84,-282.5 235,-282.5"/>
<text xml:space="preserve" text-anchor="middle" x="159.5" y="-265.2" font-family="Times,serif" font-size="14.00" fill="#000000">dram_addr=0x00001000</text>
<polyline fill="none" stroke="black" points="84,-258 235,-258"/>
<text xml:space="preserve" text-anchor="middle" x="159.5" y="-240.7" font-family="Times,serif" font-size="14.00" fill="#000000">bytes=2048</text>
</g>
<!-- x&#45;&gt;add -->
<g id="edge1" class="edge">
<title>x&#45;&gt;add</title>
<path fill="none" stroke="black" d="M112.1,-515C114.65,-506.51 117.22,-497.92 119.79,-489.37"/>
<polygon fill="black" stroke="black" points="123.07,-490.61 122.59,-480.02 116.37,-488.59 123.07,-490.61"/>
</g>
<!-- bias -->
<g id="node2" class="node">
<title>bias</title>
<path fill="LightGrey" stroke="black" d="M181,-515.5C181,-515.5 308,-515.5 308,-515.5 314,-515.5 320,-521.5 320,-527.5 320,-527.5 320,-748.5 320,-748.5 320,-754.5 314,-760.5 308,-760.5 308,-760.5 181,-760.5 181,-760.5 175,-760.5 169,-754.5 169,-748.5 169,-748.5 169,-527.5 169,-527.5 169,-521.5 175,-515.5 181,-515.5"/>
<text xml:space="preserve" text-anchor="middle" x="244.5" y="-743.2" font-family="Times,serif" font-size="14.00" fill="#000000">name=%bias</text>
<polyline fill="none" stroke="black" points="169,-736 320,-736"/>
<text xml:space="preserve" text-anchor="middle" x="244.5" y="-718.7" font-family="Times,serif" font-size="14.00" fill="#000000">op_code=get_attr</text>
<polyline fill="none" stroke="black" points="169,-711.5 320,-711.5"/>
<text xml:space="preserve" text-anchor="middle" x="244.5" y="-694.2" font-family="Times,serif" font-size="14.00" fill="#000000">target=bias</text>
<polyline fill="none" stroke="black" points="169,-687 320,-687"/>
<text xml:space="preserve" text-anchor="middle" x="244.5" y="-669.7" font-family="Times,serif" font-size="14.00" fill="#000000">num_users=1</text>
<polyline fill="none" stroke="black" points="169,-662.5 320,-662.5"/>
<text xml:space="preserve" text-anchor="middle" x="244.5" y="-645.2" font-family="Times,serif" font-size="14.00" fill="#000000">dtype=torch.bfloat16</text>
<polyline fill="none" stroke="black" points="169,-638 320,-638"/>
<text xml:space="preserve" text-anchor="middle" x="244.5" y="-620.7" font-family="Times,serif" font-size="14.00" fill="#000000">shape=(32, 32)</text>
<polyline fill="none" stroke="black" points="169,-613.5 320,-613.5"/>
<text xml:space="preserve" text-anchor="middle" x="244.5" y="-596.2" font-family="Times,serif" font-size="14.00" fill="#000000">requires_grad=False</text>
<polyline fill="none" stroke="black" points="169,-589 320,-589"/>
<text xml:space="preserve" text-anchor="middle" x="244.5" y="-571.7" font-family="Times,serif" font-size="14.00" fill="#000000">stride=(32, 1)</text>
<polyline fill="none" stroke="black" points="169,-564.5 320,-564.5"/>
<text xml:space="preserve" text-anchor="middle" x="244.5" y="-547.2" font-family="Times,serif" font-size="14.00" fill="#000000">dram_addr=0x00000800</text>
<polyline fill="none" stroke="black" points="169,-540 320,-540"/>
<text xml:space="preserve" text-anchor="middle" x="244.5" y="-522.7" font-family="Times,serif" font-size="14.00" fill="#000000">bytes=2048</text>
</g>
<!-- bias&#45;&gt;add -->
<g id="edge2" class="edge">
<title>bias&#45;&gt;add</title>
<path fill="none" stroke="black" d="M207.47,-515C204.89,-506.51 202.28,-497.92 199.68,-489.37"/>
<polygon fill="black" stroke="black" points="203.1,-488.57 196.85,-480.02 196.4,-490.61 203.1,-488.57"/>
</g>
<!-- output -->
<g id="node4" class="node">
<title>output</title>
<path fill="PowderBlue" stroke="black" d="M106.12,-0.5C106.12,-0.5 212.88,-0.5 212.88,-0.5 218.88,-0.5 224.88,-6.5 224.88,-12.5 224.88,-12.5 224.88,-184.5 224.88,-184.5 224.88,-190.5 218.88,-196.5 212.88,-196.5 212.88,-196.5 106.12,-196.5 106.12,-196.5 100.12,-196.5 94.12,-190.5 94.12,-184.5 94.12,-184.5 94.12,-12.5 94.12,-12.5 94.12,-6.5 100.12,-0.5 106.12,-0.5"/>
<text xml:space="preserve" text-anchor="middle" x="159.5" y="-179.2" font-family="Times,serif" font-size="14.00" fill="#000000">name=%output</text>
<polyline fill="none" stroke="black" points="94.12,-172 224.88,-172"/>
<text xml:space="preserve" text-anchor="middle" x="159.5" y="-154.7" font-family="Times,serif" font-size="14.00" fill="#000000">op_code=output</text>
<polyline fill="none" stroke="black" points="94.12,-147.5 224.88,-147.5"/>
<text xml:space="preserve" text-anchor="middle" x="159.5" y="-130.2" font-family="Times,serif" font-size="14.00" fill="#000000">target=output</text>
<polyline fill="none" stroke="black" points="94.12,-123 224.88,-123"/>
<text xml:space="preserve" text-anchor="middle" x="159.5" y="-105.7" font-family="Times,serif" font-size="14.00" fill="#000000">num_users=0</text>
<polyline fill="none" stroke="black" points="94.12,-98.5 224.88,-98.5"/>
<text xml:space="preserve" text-anchor="middle" x="159.5" y="-81.2" font-family="Times,serif" font-size="14.00" fill="#000000">dtype=torch.bfloat16</text>
<polyline fill="none" stroke="black" points="94.12,-74 224.88,-74"/>
<text xml:space="preserve" text-anchor="middle" x="159.5" y="-56.7" font-family="Times,serif" font-size="14.00" fill="#000000">shape=(32, 32)</text>
<polyline fill="none" stroke="black" points="94.12,-49.5 224.88,-49.5"/>
<text xml:space="preserve" text-anchor="middle" x="159.5" y="-32.2" font-family="Times,serif" font-size="14.00" fill="#000000">requires_grad=False</text>
<polyline fill="none" stroke="black" points="94.12,-25 224.88,-25"/>
<text xml:space="preserve" text-anchor="middle" x="159.5" y="-7.7" font-family="Times,serif" font-size="14.00" fill="#000000">stride=(32, 1)</text>
</g>
<!-- add&#45;&gt;output -->
<g id="edge3" class="edge">
<title>add&#45;&gt;output</title>
<path fill="none" stroke="black" d="M159.5,-233.24C159.5,-224.84 159.5,-216.41 159.5,-208.09"/>
<polygon fill="black" stroke="black" points="163,-208.35 159.5,-198.35 156,-208.35 163,-208.35"/>
</g>
</g>
</svg>
